<?xml version="1.0" encoding="UTF-8" standalone="no"?>
<!-- Created with Inkscape (http://www.inkscape.org/) -->

<svg
   width="15mm"
   height="20mm"
   viewBox="0 0 15 20"
   version="1.1"
   id="svg5"
   inkscape:version="1.2.1 (9c6d41e410, 2022-07-14)"
   sodipodi:docname="robot.svg"
   xmlns:inkscape="http://www.inkscape.org/namespaces/inkscape"
   xmlns:sodipodi="http://sodipodi.sourceforge.net/DTD/sodipodi-0.dtd"
   xmlns="http://www.w3.org/2000/svg"
   xmlns:svg="http://www.w3.org/2000/svg">
  <sodipodi:namedview
     id="namedview7"
     pagecolor="#ffffff"
     bordercolor="#000000"
     borderopacity="0.25"
     inkscape:showpageshadow="2"
     inkscape:pageopacity="0.0"
     inkscape:pagecheckerboard="0"
     inkscape:deskcolor="#d1d1d1"
     inkscape:document-units="mm"
     showgrid="false"
     inkscape:zoom="5.2913967"
     inkscape:cx="33.922991"
     inkscape:cy="44.600701"
     inkscape:window-width="1366"
     inkscape:window-height="705"
     inkscape:window-x="-8"
     inkscape:window-y="-8"
     inkscape:window-maximized="1"
     inkscape:current-layer="layer1" />
  <defs
     id="defs2" />
  <g
     inkscape:label="Layer 1"
     inkscape:groupmode="layer"
     id="layer1">
    <rect
       style="fill:#800080;stroke-width:0.132292"
       id="rect1164"
       width="15"
       height="20"
       x="0"
       y="0" />
    <rect
       style="fill:#808080;stroke-width:0.132292"
       id="rect1220"
       width="1.2728571"
       height="2.6871428"
       x="0.59000015"
       y="0.98428631" />
    <rect
       style="fill:#808080;stroke-width:0.132292"
       id="rect1220-5"
       width="1.2728571"
       height="2.6871428"
       x="13.09"
       y="0.98428631" />
    <rect
       style="fill:#808080;stroke-width:0.132292"
       id="rect1220-4"
       width="1.2728571"
       height="2.6871428"
       x="0.59000015"
       y="16.484287" />
    <rect
       style="fill:#808080;stroke-width:0.132292"
       id="rect1220-4-1"
       width="1.2728571"
       height="2.6871428"
       x="13.09"
       y="16.484287" />
    <path
       style="fill:#f9f9f9;stroke-width:0.132292"
       id="path1742"
       d="M 4.1783552,7.3110692 C 3.9450221,7.5785437 3.754179,7.8783269 3.5782869,8.1856526 3.4969786,8.3414898 3.411547,8.4987073 3.3567261,8.6666087 c -0.012147,0.037203 -0.029557,0.074914 -0.028001,0.1140185 0.00326,0.081963 0.059082,0.1083435 0.1130776,0.1536835 0.074482,0.029765 0.1462762,0.067426 0.223447,0.089295 0.06061,0.017177 0.1244163,0.020259 0.1870485,0.027034 0.2106263,0.022781 0.4232195,0.026072 0.6347801,0.031513 0,0 -0.073448,-0.053642 -0.073448,-0.053642 v 0 C 4.2021328,9.0234605 3.9895996,9.0203199 3.7791826,8.9958351 3.71628,8.9885167 3.6544477,8.9731841 3.5914623,8.9666129 c -0.020278,-0.00212 -0.040717,0.00217 -0.061076,0.00327 -0.051387,-0.039454 -0.11301,-0.067754 -0.1183289,-0.1443215 -0.00269,-0.038769 0.014369,-0.076571 0.026008,-0.1136496 0.052788,-0.1681729 0.1379323,-0.3254021 0.2182299,-0.4812549 0.1759905,-0.3068132 0.366753,-0.6070637 0.6059699,-0.8692078 0,0 -0.083911,-0.05038 -0.08391,-0.05038 z" />
    <path
       style="fill:#f9f9f9;stroke-width:0.132292"
       id="path1744"
       d="M 4.4843318,7.6485924 C 4.2293227,8.0020805 4.0766933,8.4219999 3.9045009,8.8199218 3.7630086,9.1650266 3.6082848,9.5050985 3.4755859,9.8537611 3.4263046,9.9655584 3.391612,10.082561 3.3561827,10.199229 c 0,0 0.085208,0.04661 0.085208,0.04661 v 0 C 3.4763995,10.129153 3.5108991,10.012205 3.5587058,9.8999317 3.6874846,9.5495966 3.8391237,9.2078962 3.9801667,8.8624446 4.1509341,8.4660167 4.3044763,8.0453483 4.5682828,7.7000374 c 0,0 -0.083951,-0.051445 -0.083951,-0.051445 z" />
    <path
       style="fill:#f9f9f9;stroke-width:0.132292"
       id="path1746"
       d="M 6.1956407,7.4432932 C 6.0201439,7.6658048 5.8610073,7.9005 5.7046698,8.1366621 5.4390467,8.6258825 5.2678184,9.159034 5.1716066,9.7059042 c 0.011509,0.1206397 0.00453,0.2024031 0.068322,0.3091378 0.1393364,0.233123 0.4549616,0.297121 0.6972966,0.354438 0.058767,0.0035 0.1174869,0.01321 0.1763017,0.01059 0.1155747,-0.0051 0.413114,-0.07695 0.3884057,-0.247353 -0.00571,-0.03935 -0.036257,-0.07078 -0.054385,-0.106175 C 6.2279794,9.814503 5.9316434,9.7332423 5.6425832,9.6677944 c 0,0 0.074343,0.05659 0.074343,0.05659 v 0 c 0.1587741,0.036094 0.3090939,0.078614 0.4606771,0.139088 0.024262,0.00968 0.049863,0.017452 0.071492,0.032098 0.040056,0.027127 0.074713,0.061476 0.1120693,0.092214 0.018899,0.033198 0.049718,0.062036 0.056698,0.099593 0.030617,0.164755 -0.2706505,0.233956 -0.3784174,0.238154 -0.058375,0.0023 -0.1165876,-0.0077 -0.1748814,-0.01149 C 5.7537915,10.287333 5.5137647,10.241517 5.4256074,10.165882 5.2944548,10.053357 5.2574507,9.9163422 5.2517574,9.7484656 5.3423168,9.2014727 5.5109583,8.6676239 5.7816093,8.1817714 5.9407443,7.9471786 6.0998755,7.7117317 6.2810723,7.4933539 c 0,0 -0.085432,-0.05006 -0.085432,-0.050061 z" />
    <path
       style="fill:#f9f9f9;stroke-width:0.132292"
       id="path1748"
       d="M 8.6957682,7.4932957 C 8.5641719,7.708275 8.4405117,7.9278913 8.3081187,8.1424835 8.0683414,8.5003443 7.8627011,8.8743762 7.7211411,9.2815343 7.6749644,9.4429227 7.64757,9.6087336 7.6282898,9.7752333 c -0.00555,0.047929 -0.020738,0.1853226 -0.013949,0.2388707 0.00433,0.03419 0.018648,0.06636 0.02797,0.09954 0.015192,0.02929 0.024799,0.06224 0.045577,0.08788 0.023429,0.02891 0.053328,0.05268 0.084642,0.07278 0.1834229,0.117718 0.3566335,0.1586 0.5682343,0.185581 0.1785577,0.0072 0.4097956,0.06227 0.5671002,-0.0564 0.024831,-0.01873 0.042746,-0.04519 0.064118,-0.06779 0.015497,-0.02573 0.037152,-0.04864 0.046489,-0.07719 C 9.0908025,10.037326 8.7883853,9.8763115 8.6418067,9.786182 8.3897871,9.644713 8.5023255,9.7027255 8.3069543,9.6068879 c 0,0 0.073294,0.058549 0.073294,0.058549 v 0 c 0.139568,0.068811 0.08141,0.039385 0.1749819,0.087268 0.1369264,0.082997 0.4457812,0.2518781 0.3802359,0.4576721 -0.0089,0.02795 -0.030207,0.0503 -0.045311,0.07545 -0.020786,0.02171 -0.038219,0.04722 -0.062356,0.06513 -0.1505641,0.111702 -0.3909171,0.06181 -0.5620615,0.0529 -0.1491869,-0.02007 -0.3842314,-0.03796 -0.490733,-0.163167 -0.021156,-0.02487 -0.031035,-0.05746 -0.046553,-0.0862 -0.00983,-0.0324 -0.024738,-0.06367 -0.029482,-0.09719 -0.00759,-0.05364 0.00651,-0.1906759 0.011732,-0.2387433 0.01805,-0.166203 0.044738,-0.3316896 0.090755,-0.492689 C 7.9408426,8.9185035 8.1450375,8.5443294 8.3864002,8.1880275 8.5205127,7.9746262 8.6446441,7.7551083 8.7812008,7.5433562 c 0,0 -0.085432,-0.05006 -0.085433,-0.05006 z" />
    <path
       style="fill:#f9f9f9;stroke-width:0.132292"
       id="path1750"
       d="m 11.280773,7.5213958 c -0.238837,-0.00209 -0.485836,0.013994 -0.706349,0.1154935 -0.05912,0.02721 -0.113046,0.064508 -0.169569,0.096762 -0.337197,0.2521288 -0.4875593,0.5699741 -0.5797065,0.9702538 -0.019111,0.2022689 -0.00569,0.4898284 0.2561665,0.5281588 0.03741,0.00548 0.07144,-0.024768 0.107164,-0.037153 0.256827,-0.1576713 0.431863,-0.4099568 0.611564,-0.6457127 0.115614,-0.1606981 0.229784,-0.3233539 0.298109,-0.51016 0.04911,-0.1253342 0.07686,-0.258362 0.138245,-0.3785418 -0.07099,-0.072912 0.05408,-0.033486 0.04026,-0.025612 -0.03142,0.017912 -0.07934,0.010171 -0.101295,0.038913 -0.03989,0.052208 -0.04541,0.123317 -0.06938,0.1844879 -0.06912,0.1763615 -0.14165,0.3513688 -0.21207,0.5272159 -0.27892,0.6625257 -0.511035,1.3429935 -0.773432,2.0119448 -0.08886,0.234486 -0.1906906,0.463646 -0.2832556,0.696627 0,0 0.082376,0.0459 0.082376,0.0459 v 0 c 0.089593,-0.234546 0.1887456,-0.465275 0.2756356,-0.700887 0.257514,-0.6707461 0.492491,-1.3501726 0.773355,-2.011836 0.07201,-0.1750049 0.144983,-0.3496143 0.216888,-0.5246637 0.02507,-0.06104 0.07166,-0.1175877 0.07422,-0.1835274 0.002,-0.05244 -0.03577,-0.099182 -0.06144,-0.1449554 -0.0098,-0.017463 -0.07583,0.036082 -0.04633,0.038217 -0.06113,0.1207934 -0.08978,0.2538828 -0.138155,0.3799559 -0.06688,0.1863299 -0.180211,0.3484526 -0.29432,0.5090187 -0.178017,0.2347576 -0.351229,0.4874506 -0.609487,0.6402392 -0.03484,0.010454 -0.07223,0.014624 -0.104529,0.031363 -0.0063,0.00326 0.0085,0.026053 0.0035,0.020981 C 9.8939383,9.0761123 9.8924223,8.8999834 9.9064497,8.7476403 9.9957137,8.3481877 10.144746,8.0338103 10.48126,7.7833476 c 0.05627,-0.031772 0.10994,-0.068672 0.168811,-0.095318 0.222142,-0.1005456 0.470706,-0.1144871 0.710504,-0.1086559 0,0 -0.0798,-0.057978 -0.0798,-0.057978 z" />
    <path
       id="path1752"
       style="fill:#f9f9f9;stroke-width:0.132292"
       d="m 14.224972,11.097514 c -0.512042,0.03185 -1.025556,0.06541 -3.085083,0.197921 -0.921233,0.06198 -1.8426372,0.120985 -2.7636561,0.186035 -2.0136574,0.142221 -4.0259085,0.32288 -6.0440755,0.390157 l 0.079582,0.05788 c 2.9226879,-0.15217 5.8388015,-0.406892 8.7581219,-0.612365 2.122574,-0.138565 2.5437,-0.166923 3.078882,-0.199988 -0.008,-0.0066 -0.01586,-0.01302 -0.02377,-0.01964 z" />
  </g>
</svg>
